<svg height="22" viewBox="0 0 22 22" width="22" xmlns="http://www.w3.org/2000/svg"><path d="m12 23c-6.07513225 0-11-4.9248678-11-11 0-6.07513225 4.92486775-11 11-11 6.0751322 0 11 4.92486775 11 11 0 6.0751322-4.9248678 11-11 11zm0-2c4.9705627 0 9-4.0294373 9-9 0-4.97056275-4.0294373-9-9-9-4.97056275 0-9 4.02943725-9 9 0 4.9705627 4.02943725 9 9 9zm0-12c-.5522847 0-1-.44771525-1-1s.4477153-1 1-1 1 .44771525 1 1-.4477153 1-1 1zm0 2c.5522847 0 1 .4477153 1 1v5c0 .5522847-.4477153 1-1 1s-1-.4477153-1-1v-5c0-.5522847.4477153-1 1-1z" fill="#4a4a4a" transform="translate(-1 -1)"/></svg>