<svg height="43" viewBox="0 0 184 43" width="184" xmlns="http://www.w3.org/2000/svg" xmlns:xlink="http://www.w3.org/1999/xlink"><linearGradient id="a" x1="88.772%" x2="3.913%" y1="9.086%" y2="97.876%"><stop offset="0" stop-color="#337efd"/><stop offset="1" stop-color="#443fe6"/></linearGradient><g fill="none" fill-rule="evenodd" transform="translate(1)"><path d="m63.7715902 18.038636c-.0886368-.886368-.4397696-1.5784065-1.053409-2.0761362-.6136394-.4977298-1.4693126-.7465909-2.5670453-.7465909-1.0704599 0-1.9414738.2284068-2.613068.6852272-.6715943.4568205-1.0073864 1.0499963-1.0073864 1.7795454 0 .7090944.357951 1.2715887 1.0738636 1.6874999.7159126.4159111 1.6772666.8215888 2.8840908 1.2170453l1.0738635.3477273c1.9704643.6477305 3.4874945 1.4471543 4.5511361 2.3982953 1.0636416.9511411 1.5954545 2.2380599 1.5954545 3.8607952 0 1.2613699-.3187468 2.3539726-.95625 3.2778408-.6375031.9238682-1.530676 1.6346565-2.6795453 2.1323862s-2.4971512.7465909-4.0448861.7465909c-1.425007 0-2.7426074-.2454521-3.9528407-.7363636-1.2102332-.4909116-2.1852234-1.2289723-2.9249998-2.2142045-.7397764-.9852321-1.1232952-2.2210151-1.1505681-3.7073861h3.947727c.061364 1.0772781.4687462 1.8886335 1.2221591 2.4340908.7534128.5454572 1.7062441.8181817 2.8585225.8181817 1.2136424 0 2.1460194-.2676109 2.7971589-.8028408.6511396-.5352299.9767045-1.1744281.9767045-1.9176135 0-.7295491-.3272694-1.3397702-.9818181-1.8306818-.6545487-.4909115-1.755674-.9749975-3.3034089-1.4522726l-1.1045454-.3170454c-1.7045539-.5113662-3.1005625-1.252836-4.1880679-2.2244317s-1.6312499-2.2107878-1.6312499-3.7176134c0-1.1727331.3306785-2.2005637.9920454-3.0835226s1.5630624-1.5698838 2.7051135-2.0607953 2.435788-.7363636 3.8812497-.7363636c1.4522799 0 2.7340852.2590883 3.8454543.7772727 1.1113692.5181844 1.9840877 1.2443134 2.6181817 2.1784089.634094.9340956.9613635 2.0284027.9818181 3.2829544zm10.3304112 6.2795451v8.7136358h-3.9681816v-20.9454533h3.8556816v7.0874996h.1636363c.4363658-.5931848 1.0124964-1.0840889 1.728409-1.4727272s1.5579496-.5829545 2.5261362-.5829545c1.4318253 0 2.6028362.4977223 3.513068 1.4931817.9102318.9954595 1.3653408 2.5124897 1.3653408 4.5511361v9.8693176h-3.9784088v-9.8999994c0-.8386405-.1874981-1.5051111-.5625-1.9994317s-.9511324-.7414772-1.728409-.7414772c-.9068226 0-1.6193155.3528373-2.1374999 1.0585226-.5181843.7056853-.7772726 1.6619257-.7772726 2.8687499zm20.6497287 8.7136358v-1.7693181h-.1840909c-.2727286.4977298-.7346558.9698841-1.3857954 1.4164772s-1.5289717.6698864-2.6335226.6698864c-.9340955 0-1.7880642-.1840891-2.5619316-.5522727-.7738675-.3681837-1.3926113-.9051101-1.8562499-1.6107954-.4636387-.7056853-.6954545-1.5664721-.6954545-2.5823862 0-1.5204621.5556762-2.6761323 1.6670453-3.4670453 1.1113692-.790913 2.6624899-1.2784081 4.6534088-1.4624999.4636387-.0477275.9119296-.0988633 1.3448863-.1534091.4329567-.0545457.7874986-.1465902 1.0636363-.2761363.2761378-.1295461.4142046-.3306804.4142046-.6034091v-.2352272c0-.7022762-.206248-1.2426117-.61875-1.6210226-.412502-.378411-.9630647-.5676136-1.6517045-.5676136-.729549 0-1.3465883.184089-1.8511362.5522726-.504548.3681837-.8284083.8181792-.9715909 1.35l-3.7329543-.5420455c.3613654-1.4454616 1.1437439-2.549996 2.347159-3.3136361 1.203415-.7636402 2.6403324-1.1454545 4.3107952-1.1454545 1.0431869 0 2.0352224.1704528 2.9761361.5113636.9409138.3409108 1.7079515.9034051 2.3011363 1.6874999.5931847.7840948.8897727 1.8409023.8897727 3.1704544v10.5443175zm-.1738636-5.2363633v-2.0761362c-.1022733.1090914-.3017031.204545-.5982955.2863636-.2965923.0818186-.6187482.1517042-.9664772.209659-.347729.0579549-.6409078.1005681-.8795454.127841-.9409137.1090914-1.648293.3340891-2.1221589.6749999-.473866.3409108-.7107955.8522693-.7107955 1.5340908 0 .5590937.2028389.9971575.6085227 1.3142045.4056839.317047.9357922.4755681 1.5903408.4755681.8727316 0 1.6039743-.2539747 2.1937499-.7619317.5897757-.5079571.8846591-1.1028375.8846591-1.784659zm16.5997285-10.1761358-1.2375 3.4465907c-.109091-.0613639-.299998-.1312496-.572727-.209659-.272728-.0784095-.569316-.1176137-.889772-.1176137-.627276 0-1.179543.1619302-1.656819.4857955-.477275.3238652-.852271.7431792-1.124999 1.2579544-.272729.5147753-.4125 1.0619289-.419319 1.6414772v8.907954h-3.968181v-15.70909h3.886363v2.2295454h.225c.225001-.7977312.688633-1.4045433 1.390909-1.8204545.702276-.4159111 1.435224-.6238636 2.198864-.6238636.409093 0 .811361.0494313 1.206818.1482955.395456.0988641.715908.2198856.961363.3630681zm7.691775 15.70909c-1.575007 0-2.930107-.3221558-4.06534-.9664772s-2.009656-1.5596531-2.623296-2.7460226c-.613639-1.1863695-.920454-2.5977189-.920454-4.2340906 0-1.5954625.293179-3.0153345.879545-4.2596589.586367-1.2443243 1.435222-2.2227235 2.546591-2.9352271 1.111369-.7125035 2.451128-1.0687499 4.019318-1.0687499 1.329552 0 2.524426.2795426 3.584659.8386363 1.060232.5590937 1.89886 1.3977216 2.515909 2.515909.617048 1.1181873.925568 2.5159005.925568 4.1931815v1.6670454h-10.636363c.129546 1.1659148.502838 2.0812465 1.119886 2.7460225.617049.6647761 1.491472.9971591 2.623296.9971591.947731 0 1.660224-.2164751 2.137499-.6494318.477276-.4329567.82159-.9426107 1.032955-1.5289772l3.559091.9613636c-.19091.7227308-.553975 1.4249965-1.089205 2.106818-.53523.6818216-1.264768 1.2460205-2.188636 1.6926136s-2.064198.6698863-3.421023.6698863zm-.194318-12.9886356c-.913641 0-1.667042.2863608-2.260227.8590909s-.995453 1.3738584-1.206818 2.4034089h6.760227c0-.9272773-.288065-1.7028377-.864205-2.3267044-.576139-.6238667-1.38579-.9357954-2.428977-.9357954zm22.674729 1.9943181-3.692045.5522727c-.184092-.7431855-.514771-1.3534066-.992046-1.8306817s-1.152268-.7159091-2.025-.7159091c-1.172733 0-2.050565.4414728-2.633522 1.3244318-.582958.8829589-.874432 2.0539698-.874432 3.5130679 0 1.4727346.28977 2.6573818.869318 3.5539771s1.459085 1.3448863 2.638636 1.3448863c.790913 0 1.43352-.209657 1.927841-.6289773.494321-.4193202.84034-.9835191 1.038068-1.6926135l3.7125.5318182c-.313638 1.5000074-1.061926 2.715336-2.244886 3.6460225-1.182961.9306864-2.660787 1.3960226-4.433523 1.3960226-1.513644 0-2.815903-.3477238-3.906818-1.0431817-1.090914-.695458-1.931247-1.6551075-2.521022-2.8789771-.589776-1.2238697-.884659-2.6335146-.884659-4.2289771 0-1.581826.296588-2.9778347.889772-4.1880679.593185-1.2102333 1.435222-2.157951 2.526137-2.8431817 1.090914-.6852306 2.386356-1.0278408 3.886363-1.0278408 1.786372 0 3.281244.4738589 4.484659 1.4215908 1.203415.947732 1.948294 2.212492 2.234659 3.794318zm11.527002 3.7022725v-8.7136359h3.978409v15.70909h-3.722727v-1.8511362h-.163637c-.429547.5795483-1.015905 1.0670434-1.759091 1.4624999-.743185.3954565-1.609085.5931818-2.597727.5931818-.852277 0-1.677268-.1977253-2.475-.5931818-.797731-.3954565-1.453974-1.0363592-1.968749-1.9227272-.514776-.886368-.772159-2.0624925-.772159-3.5284089v-9.8693176h3.968181v9.7568176c0 .9340956.250566 1.6482929.751705 2.1426136.501138.4943206 1.1267.7414772 1.876704.7414772.886368 0 1.588634-.3494283 2.106818-1.0482954s.777273-1.6585165.777273-2.8789771zm14.339502-8.7136359v2.9454544h-2.740909v7.9568177c0 .7295491.155112 1.1914763.465341 1.3857954.310228.1943191.68352.2914772 1.119886.2914772.368183 0 .70568-.0409086 1.0125-.1227272l.623863 3.0579543c-.15.061364-.461929.1431813-.935795.2454546-.473866.1022732-1.075564.1534091-1.805114.1534091-.797731 0-1.534087-.1755665-2.20909-.5267046-.675004-.3511381-1.217044-.8556784-1.626137-1.5136362s-.613636-1.4471544-.613636-2.3676135v-8.5602268h-1.953409v-2.9454544h1.953409v-3.3545452h3.968182v3.3545452zm14.595183 4.2647725-3.610227.3681818c-.102273-.5181844-.386929-.9596572-.853977-1.3244317-.467048-.3647746-1.082383-.5471591-1.846023-.5471591-.668185 0-1.256247.151703-1.764204.4551136s-.761932.7107929-.761932 1.222159c0 .4431841.190907.7960214.572727 1.0585227s.865906.4585221 1.452273.5880682l2.914773.6238636c1.206824.2659104 2.210791.7244285 3.011931 1.3755681.801141.6511395 1.201705 1.6073799 1.201705 2.8687498 0 1.0840962-.305111 2.0011325-.915341 2.7511362s-1.436927 1.3210207-2.480114 1.7130681-2.215902.5880681-3.518181.5880681c-1.970465 0-3.509654-.4210185-4.617614-1.2630681s-1.815339-2.0028334-2.122159-3.4823862l3.794318-.4295454c.19091.7159126.565907 1.2664753 1.125 1.6517045.559094.3852291 1.22386.5778408 1.994318.5778408.76364 0 1.39943-.1619302 1.907387-.4857954s.761931-.7142022.761931-1.1710226c0-.5386391-.192611-.9136353-.577841-1.125-.385229-.2113647-.830111-.3749994-1.334659-.490909l-2.761363-.6238636c-1.26137-.3000015-2.301132-.8062464-3.119318-1.5187499-.818186-.7125036-1.227273-1.6960164-1.227273-2.9505681 0-1.520462.610221-2.7170409 1.830682-3.5897725s2.819308-1.3090908 4.796591-1.3090908c1.840918 0 3.26079.3886325 4.259659 1.165909.998868.7772766 1.627839 1.8784019 1.886931 3.3034089z" fill="#4a4a4a"/><path d="m14.3701181 35.0689406c0 3.97187-3.2480216 7.1915081-7.25490638 7.1915081-4.00688481 0-7.2549064-3.2196381-7.2549064-7.1915081 0-3.9722295 3.24802159-7.1915081 7.2549064-7.1915081h3.62745318v-7.1915081h-3.62745318c-4.00688481 0-7.2549064-3.2196381-7.2549064-7.191508 0-3.97186996 3.24802159-7.19150814 7.2549064-7.19150814 4.00688478 0 7.25490638 3.21963818 7.25490638 7.19150814v3.595754h7.2549064l3.6274532 3.595754v7.1915081h3.6274532c4.0065221 0 7.2549064 3.2192786 7.2549064 7.1915081 0 3.97187-3.2483843 7.1915081-7.2549064 7.1915081-4.006522 0-7.2549064-3.2196381-7.2549064-7.1915081v-3.595754h-7.2549064zm14.4136366-3.4995682h-3.6274532v3.595754c0 1.9830584 1.6272755 3.5957541 3.6274532 3.5957541s3.6274532-1.6126957 3.6274532-3.5957541c0-1.9830583-1.6272755-3.595754-3.6274532-3.595754zm-21.57236679-14.5753878h3.62745319v-3.5957541c0-1.9826987-1.62727549-3.595754-3.62745319-3.595754-2.00054044 0-3.6274532 1.6130553-3.6274532 3.595754 0 1.9826988 1.62691276 3.5957541 3.6274532 3.5957541zm7.15873019 3.6919398v7.1915081h7.2549064v-7.1915081zm-10.78618339 14.479202c0 1.9830584 1.62691276 3.5957541 3.6274532 3.5957541 2.0001777 0 3.62745319-1.6126957 3.62745319-3.5957541v-3.595754h-3.62745319c-2.00054044 0-3.6274532 1.6126957-3.6274532 3.595754zm21.56683589-13.8992478-3.6207068-3.328601.0125902-3.0999619c.0204629-4.66283 3.8170236-8.45976698 8.4798556-8.48069619l4.3517836-.01843328.0075591 3.61114178-4.3503872.01842715c-2.6688864.01197932-4.8415475 2.18485574-4.8532573 4.85313864zm8.1734924-13.1504055-5.519326-5.51932595 2.564861-2.56486095 8.0615191 8.06151916-8.1327155 8.13271544-2.5421932-2.5421932z" fill="url(#a)" fill-rule="nonzero"/></g></svg>