<svg height="43" width="184" xmlns="http://www.w3.org/2000/svg"><linearGradient id="a" x1="88.772%" x2="3.913%" y1="9.086%" y2="97.876%"><stop offset="0" stop-color="#337efd"/><stop offset="1" stop-color="#443fe6"/></linearGradient><g fill="none" fill-rule="evenodd"><path d="M64.772 18.039c-.089-.887-.44-1.579-1.054-2.077-.613-.497-1.47-.746-2.567-.746-1.07 0-1.941.228-2.613.685-.672.457-1.007 1.05-1.007 1.78 0 .709.358 1.271 1.074 1.687.715.416 1.677.822 2.884 1.217l1.073.348c1.971.648 3.488 1.447 4.552 2.398 1.063.951 1.595 2.238 1.595 3.861 0 1.261-.319 2.354-.956 3.278-.638.924-1.53 1.635-2.68 2.132s-2.497.747-4.045.747c-1.425 0-2.742-.246-3.952-.737-1.21-.49-2.186-1.228-2.925-2.214-.74-.985-1.124-2.22-1.151-3.707h3.948c.061 1.077.468 1.889 1.222 2.434.753.545 1.706.818 2.858.818 1.214 0 2.146-.267 2.798-.803.65-.535.976-1.174.976-1.917 0-.73-.327-1.34-.982-1.831-.654-.49-1.755-.975-3.303-1.452l-1.105-.317c-1.704-.512-3.1-1.253-4.188-2.225s-1.63-2.21-1.63-3.717c0-1.173.33-2.2.991-3.084s1.563-1.57 2.705-2.06 2.436-.737 3.882-.737c1.452 0 2.734.26 3.845.777 1.111.518 1.984 1.245 2.618 2.179.634.934.962 2.028.982 3.283zm10.33 6.28v8.713h-3.968V12.086h3.856v7.088h.163c.437-.593 1.013-1.084 1.729-1.473s1.557-.583 2.526-.583c1.432 0 2.603.498 3.513 1.493.91.996 1.365 2.513 1.365 4.551v9.87h-3.978v-9.9c0-.839-.188-1.505-.563-2s-.95-.741-1.728-.741c-.907 0-1.62.353-2.138 1.058-.518.706-.777 1.662-.777 2.87zm20.65 8.713v-1.77h-.184c-.273.498-.735.97-1.386 1.417s-1.53.67-2.634.67c-.934 0-1.788-.184-2.562-.552a4.48 4.48 0 0 1-1.856-1.611c-.463-.706-.695-1.567-.695-2.583 0-1.52.555-2.676 1.667-3.467 1.111-.79 2.662-1.278 4.653-1.462.464-.048.912-.099 1.345-.154.433-.054.788-.146 1.064-.276.276-.13.414-.33.414-.603v-.235c0-.703-.206-1.243-.619-1.621-.412-.379-.963-.568-1.652-.568-.73 0-1.346.184-1.85.552-.505.369-.83.818-.972 1.35l-3.733-.542c.361-1.445 1.143-2.55 2.347-3.313 1.203-.764 2.64-1.146 4.31-1.146 1.044 0 2.036.17 2.977.512.94.34 1.708.903 2.301 1.687.593.784.89 1.84.89 3.17v10.545zm-.174-5.237V25.72c-.102.11-.302.205-.598.287a9.538 9.538 0 0 1-.967.21c-.348.057-.64.1-.88.127-.94.11-1.648.334-2.122.675-.473.341-.71.852-.71 1.534 0 .56.202.997.608 1.314.406.318.936.476 1.59.476.873 0 1.604-.254 2.194-.762.59-.508.885-1.103.885-1.785zm16.6-10.176l-1.238 3.447a2.97 2.97 0 0 0-.573-.21 3.21 3.21 0 0 0-.89-.117c-.627 0-1.179.162-1.656.485a3.446 3.446 0 0 0-1.125 1.258 3.547 3.547 0 0 0-.42 1.642v8.908h-3.968v-15.71h3.887v2.23h.225a2.978 2.978 0 0 1 1.39-1.82c.703-.416 1.436-.624 2.2-.624.409 0 .81.05 1.206.148.396.1.716.22.962.363zm7.691 15.71c-1.575 0-2.93-.323-4.065-.967s-2.01-1.56-2.623-2.746c-.614-1.186-.92-2.598-.92-4.234 0-1.596.292-3.016.879-4.26.586-1.244 1.435-2.223 2.546-2.935 1.112-.713 2.452-1.069 4.02-1.069 1.33 0 2.524.28 3.584.839 1.06.559 1.9 1.398 2.516 2.516.617 1.118.926 2.516.926 4.193v1.667h-10.636c.13 1.166.502 2.081 1.12 2.746.616.665 1.49.997 2.623.997.947 0 1.66-.216 2.137-.65a3.763 3.763 0 0 0 1.033-1.528l3.56.961c-.192.723-.555 1.425-1.09 2.107-.535.682-1.265 1.246-2.189 1.693s-2.064.67-3.42.67zm-.194-12.99c-.914 0-1.667.287-2.26.86s-.996 1.374-1.207 2.403h6.76c0-.927-.288-1.703-.864-2.326-.576-.624-1.386-.936-2.429-.936zm22.675 1.995l-3.692.552c-.184-.743-.515-1.353-.992-1.83s-1.153-.716-2.025-.716c-1.173 0-2.05.441-2.634 1.324-.583.883-.874 2.054-.874 3.513 0 1.473.29 2.658.87 3.554s1.458 1.345 2.638 1.345c.79 0 1.433-.21 1.928-.629.494-.42.84-.983 1.038-1.692l3.712.531c-.314 1.5-1.062 2.716-2.245 3.646-1.183.931-2.66 1.396-4.433 1.396-1.514 0-2.816-.347-3.907-1.043-1.091-.695-1.931-1.655-2.521-2.879-.59-1.224-.885-2.633-.885-4.229 0-1.582.297-2.978.89-4.188.593-1.21 1.435-2.158 2.526-2.843 1.091-.685 2.386-1.028 3.886-1.028 1.787 0 3.282.474 4.485 1.422 1.204.948 1.948 2.212 2.235 3.794zm11.527 3.702v-8.713h3.978v15.709h-3.723V31.18h-.163c-.43.58-1.016 1.067-1.76 1.462-.742.396-1.608.593-2.597.593a5.509 5.509 0 0 1-2.475-.593c-.798-.395-1.454-1.036-1.969-1.923-.515-.886-.772-2.062-.772-3.528v-9.87h3.968v9.758c0 .934.25 1.648.752 2.142.501.494 1.127.742 1.877.742.886 0 1.588-.35 2.107-1.049s.777-1.658.777-2.879zm14.34-8.713v2.945h-2.742v7.957c0 .73.155 1.191.466 1.386.31.194.683.291 1.12.291.368 0 .705-.04 1.012-.122l.624 3.057c-.15.062-.462.144-.936.246-.474.102-1.075.153-1.805.153a4.715 4.715 0 0 1-2.209-.526c-.675-.351-1.217-.856-1.626-1.514s-.614-1.447-.614-2.368v-8.56h-1.953v-2.945h1.953v-3.355h3.968v3.355zm14.594 4.264l-3.61.369c-.102-.519-.387-.96-.854-1.325-.467-.365-1.082-.547-1.846-.547-.668 0-1.256.152-1.764.455s-.762.711-.762 1.222c0 .444.191.796.573 1.059s.866.458 1.452.588l2.915.624c1.207.266 2.21.724 3.012 1.375.8.652 1.202 1.608 1.202 2.87 0 1.083-.306 2-.916 2.75s-1.437 1.321-2.48 1.713-2.216.588-3.518.588c-1.97 0-3.51-.42-4.618-1.263s-1.815-2.002-2.122-3.482l3.794-.43c.191.716.566 1.267 1.125 1.652.56.385 1.224.578 1.995.578.763 0 1.4-.162 1.907-.486s.762-.714.762-1.17c0-.54-.193-.914-.578-1.126a5.17 5.17 0 0 0-1.334-.49l-2.762-.625c-1.261-.3-2.3-.806-3.12-1.518-.817-.713-1.226-1.696-1.226-2.951 0-1.52.61-2.717 1.83-3.59s2.82-1.309 4.797-1.309c1.84 0 3.26.389 4.26 1.166.998.777 1.627 1.878 1.886 3.303z" fill="#4a4a4a"/><path d="M14.37 35.069c0 3.972-3.248 7.191-7.255 7.191S-.14 39.04-.14 35.07c0-3.972 3.248-7.192 7.255-7.192h3.628v-7.191H7.115c-4.007 0-7.255-3.22-7.255-7.192 0-3.971 3.248-7.191 7.255-7.191s7.255 3.22 7.255 7.191v3.596h7.255l3.627 3.596v7.191h3.628c4.006 0 7.255 3.22 7.255 7.192s-3.249 7.191-7.255 7.191c-4.007 0-7.255-3.22-7.255-7.191v-3.596H14.37zm14.414-3.5h-3.628v3.596c0 1.983 1.628 3.596 3.628 3.596s3.627-1.613 3.627-3.596-1.627-3.596-3.627-3.596zM7.21 16.994h3.628v-3.596c0-1.982-1.627-3.596-3.628-3.596-2 0-3.627 1.614-3.627 3.596 0 1.983 1.627 3.596 3.627 3.596zm7.16 3.692v7.191h7.254v-7.191zM3.583 35.166c0 1.982 1.627 3.595 3.627 3.595 2 0 3.628-1.613 3.628-3.596V31.57H7.21c-2 0-3.627 1.613-3.627 3.596zm21.567-13.9l-3.62-3.329.012-3.1c.02-4.663 3.817-8.46 8.48-8.48l4.351-.019.008 3.611-4.35.019a4.884 4.884 0 0 0-4.854 4.853zm8.173-13.15l-5.52-5.52L30.37.031l8.061 8.062-8.132 8.133-2.543-2.543z" fill="url(#a)" fill-rule="nonzero" transform="translate(1)"/></g></svg>